HIERARCHY
ROOT Hips
{
 OFFSET 0.000000 0.000000 0.000000
 CHANNELS 6 Xposition Yposition Zposition Yrotation Xrotation Zrotation
 JOINT Chest
 {
  OFFSET 0.000000 9.588913 -0.003946
  CHANNELS 3 Yrotation Xrotation Zrotation
  JOINT Chest2
  {
   OFFSET 0.000000 9.541882 0.008053
   CHANNELS 3 Yrotation Xrotation Zrotation
   JOINT Chest3
   {
    OFFSET 0.000000 9.501360 0.000000
    CHANNELS 3 Yrotation Xrotation Zrotation
    JOINT Chest4
    {
     OFFSET 0.000000 9.491660 0.000000
     CHANNELS 3 Yrotation Xrotation Zrotation
     JOINT Neck
     {
      OFFSET 0.000000 14.331917 0.000000
      CHANNELS 3 Yrotation Xrotation Zrotation
      JOINT Head
      {
       OFFSET 0.000000 8.884799 0.017034
       CHANNELS 3 Yrotation Xrotation Zrotation
       End Site
       {
        OFFSET 0.000000 16.896195 0.008993
       }
      }
     }
     JOINT RightCollar
     {
      OFFSET -2.923010 9.499495 0.000000
      CHANNELS 3 Yrotation Xrotation Zrotation
      JOINT RightShoulder
      {
       OFFSET -13.795216 0.000000 0.000000
       CHANNELS 3 Yrotation Xrotation Zrotation
       JOINT RightElbow
       {
        OFFSET -30.272209 0.000000 0.000000
        CHANNELS 3 Yrotation Xrotation Zrotation
        JOINT RightWrist
        {
         OFFSET -24.478199 0.000000 0.000000
         CHANNELS 3 Yrotation Xrotation Zrotation
         End Site
         {
          OFFSET -18.090752 0.000000 0.000000
         }
        }
       }
      }
     }
     JOINT LeftCollar
     {
      OFFSET 2.923010 9.499495 0.000000
      CHANNELS 3 Yrotation Xrotation Zrotation
      JOINT LeftShoulder
      {
       OFFSET 13.795216 0.000000 0.000000
       CHANNELS 3 Yrotation Xrotation Zrotation
       JOINT LeftElbow
       {
        OFFSET 30.272209 0.000000 0.000000
        CHANNELS 3 Yrotation Xrotation Zrotation
        JOINT LeftWrist
        {
         OFFSET 24.478199 0.000000 0.000000
         CHANNELS 3 Yrotation Xrotation Zrotation
         End Site
         {
          OFFSET 18.090752 0.000000 0.000000
         }
        }
       }
      }
     }
    }
   }
  }
 }
 JOINT RightHip
 {
  OFFSET -7.826875 0.019532 0.001973
  CHANNELS 3 Yrotation Xrotation Zrotation
  JOINT RightKnee
  {
   OFFSET 0.000000 -40.546152 -0.001885
   CHANNELS 3 Yrotation Xrotation Zrotation
   JOINT RightAnkle
   {
    OFFSET 0.000000 -39.417092 -0.003189
    CHANNELS 3 Yrotation Xrotation Zrotation
    JOINT RightToe
    {
     OFFSET 0.000000 -7.579396 17.243563
     CHANNELS 3 Yrotation Xrotation Zrotation
     End Site
     {
      OFFSET 0.000000 -1.500329 6.694466
     }
    }
   }
  }
 }
 JOINT LeftHip
 {
  OFFSET 7.826875 0.019532 0.001973
  CHANNELS 3 Yrotation Xrotation Zrotation
  JOINT LeftKnee
  {
   OFFSET 0.000000 -40.546152 -0.001885
   CHANNELS 3 Yrotation Xrotation Zrotation
   JOINT LeftAnkle
   {
    OFFSET 0.000000 -39.417092 -0.003189
    CHANNELS 3 Yrotation Xrotation Zrotation
    JOINT LeftToe
    {
     OFFSET 0.000000 -7.579396 17.243563
     CHANNELS 3 Yrotation Xrotation Zrotation
     End Site
     {
      OFFSET 0.000000 -1.500329 6.694466
     }
    }
   }
  }
 }
}
MOTION
Frames: 17
Frame Time: 0.008333
0.000000 87.345680 0.000000 0.000000 -5.767889 0.000000 0.000000 11.653876 0.000000 0.000000 -5.885988 0.000000 0.000000 -0.000000 0.000000 0.000000 -0.000000 0.000000 0.000000 12.528808 0.000000 0.000000 0.711711 0.000000 0.000000 -0.000000 0.000000 0.000000 -0.000000 0.000000 2.309063 -0.000000 0.000000 -2.309063 -0.000000 -0.000000 0.000000 -0.000000 0.000000 0.000000 0.000000 0.000000 -2.309063 0.000000 0.000000 2.309063 -0.000000 0.000000 0.000000 8.520374 0.000000 0.000000 1.905768 0.000000 -0.000000 -4.658254 0.000000 0.000000 -0.000000 0.000000 0.000000 8.520374 0.000000 0.000000 1.905768 0.000000 -0.000000 -4.658254 0.000000 0.000000 -0.000000 0.000000
-11.156339 89.129190 -0.978693 -134.427784 -6.194246 -0.196093 0.513754 2.172326 0.213096 0.297259 1.243269 0.135605 0.372056 1.553975 0.170524 0.297259 1.243269 0.135605 3.248423 20.452077 -0.908949 6.174583 2.293701 -2.605985 0.460793 -0.517772 -0.789241 0.704918 -1.415868 90.814906 3.867937 8.164430 1.577081 -0.454512 -2.010805 -0.500791 0.506922 0.236936 1.601358 -2.369354 -0.572111 -90.620961 0.167897 7.452374 -0.715800 0.555663 -2.586231 -0.835802 -3.502168 8.149710 0.355987 0.566959 2.897194 -0.765242 -7.493188 -5.022653 0.652715 0.042627 -0.026384 0.021292 2.971339 9.818545 -0.428151 -0.999465 1.653922 0.267028 5.089385 -5.216917 0.674866 -0.057130 0.019357 -0.033254
-11.152849 89.129541 -0.983632 -134.432867 -6.183296 -0.201007 0.515146 2.170268 0.204582 0.298105 1.241843 0.130498 0.373095 1.552197 0.164141 0.298105 1.241843 0.130498 3.244336 20.453454 -0.895508 6.163165 2.295260 -2.580301 0.450793 -0.523894 -0.791312 0.718027 -1.415606 90.830491 3.929213 8.232594 1.620847 -0.452701 -2.015897 -0.506276 0.497076 0.242988 1.612339 -2.391857 -0.528747 -90.651148 0.224907 7.479005 -0.702975 0.568498 -2.567989 -0.846033 -3.477071 8.153007 0.367471 0.564432 2.870016 -0.755510 -7.511884 -5.006014 0.640364 0.043768 -0.026938 0.020347 2.977733 9.845456 -0.430481 -0.987276 1.578286 0.285326 5.079199 -5.178243 0.669939 -0.056888 0.020715 -0.033069
-11.147837 89.129834 -0.989237 -134.436915 -6.168061 -0.207562 0.516552 2.165580 0.195951 0.299103 1.239036 0.125265 0.374324 1.548691 0.157601 0.299103 1.239036 0.125265 3.240230 20.456165 -0.881033 6.151360 2.299237 -2.552665 0.436334 -0.527371 -0.794074 0.738470 -1.412127 90.849536 3.987930 8.298280 1.660720 -0.454781 -2.016085 -0.509624 0.488331 0.251614 1.624391 -2.410163 -0.490747 -90.675121 0.286441 7.512414 -0.690605 0.581210 -2.553525 -0.859072 -3.445718 8.152243 0.384374 0.556384 2.841979 -0.746630 -7.534993 -4.988191 0.626512 0.045380 -0.028056 0.019701 2.983650 9.863993 -0.430302 -0.978884 1.509809 0.304301 5.067228 -5.143569 0.664112 -0.056963 0.022592 -0.033633
-11.141333 89.130014 -0.995228 -134.442483 -6.148745 -0.214813 0.519026 2.159518 0.187268 0.300858 1.235424 0.119825 0.376498 1.544180 0.150803 0.300858 1.235424 0.119825 3.235485 20.459372 -0.866733 6.138429 2.304118 -2.525136 0.418401 -0.530104 -0.796146 0.764995 -1.404786 90.870749 4.043349 8.355718 1.698830 -0.456449 -2.014837 -0.512482 0.482685 0.260053 1.638050 -2.426929 -0.457789 -90.693054 0.348534 7.553325 -0.679794 0.593085 -2.541541 -0.870809 -3.404741 8.145714 0.406137 0.541553 2.816106 -0.738909 -7.562091 -4.970668 0.610813 0.047088 -0.029346 0.019934 2.990021 9.873472 -0.429603 -0.970720 1.450242 0.322751 5.059579 -5.113724 0.657940 -0.056878 0.024562 -0.034040
-11.133448 89.130010 -1.001051 -134.445419 -6.124257 -0.221364 0.522217 2.152103 0.177999 0.303229 1.230908 0.114096 0.379441 1.538540 0.143647 0.303229 1.230908 0.114096 3.228777 20.462535 -0.853412 6.122217 2.308885 -2.498819 0.400302 -0.533403 -0.795216 0.789637 -1.391330 90.890336 4.095420 8.402243 1.736357 -0.456307 -2.011589 -0.514339 0.476257 0.265991 1.652400 -2.448553 -0.426249 -90.706626 0.407042 7.593392 -0.669037 0.605030 -2.523987 -0.879267 -3.362365 8.133147 0.428172 0.522853 2.791485 -0.732512 -7.583714 -4.953669 0.595223 0.048529 -0.030280 0.020563 2.994455 9.871947 -0.429276 -0.963083 1.400229 0.339852 5.052668 -5.087758 0.650885 -0.056922 0.026156 -0.033603
-11.124358 89.129781 -1.006499 -134.438759 -6.094574 -0.227278 0.524615 2.142994 0.167874 0.305444 1.225380 0.108133 0.382188 1.531633 0.136195 0.305444 1.225380 0.108133 3.219774 20.465422 -0.840812 6.102057 2.313073 -2.473156 0.381030 -0.535664 -0.791162 0.809052 -1.372844 90.908399 4.145420 8.437637 1.772011 -0.455448 -2.007691 -0.514413 0.466063 0.270901 1.665909 -2.479927 -0.398490 -90.716000 0.465520 7.625431 -0.655327 0.616277 -2.502339 -0.887759 -3.331483 8.116531 0.447635 0.507030 2.765404 -0.725132 -7.601605 -4.936763 0.580112 0.049566 -0.030586 0.020407 2.990185 9.858779 -0.429743 -0.954886 1.359902 0.357140 5.039851 -5.065007 0.642697 -0.057249 0.027645 -0.033269
-11.114393 89.129322 -1.011547 -134.420898 -6.060596 -0.231812 0.526074 2.132249 0.157246 0.307098 1.218823 0.101762 0.384232 1.523442 0.128231 0.307098 1.218823 0.101762 3.209088 20.467889 -0.828504 6.078936 2.316424 -2.447555 0.360827 -0.534380 -0.785825 0.821509 -1.351674 90.928530 4.192368 8.467282 1.802175 -0.453946 -2.008859 -0.512128 0.452044 0.277301 1.676938 -2.516658 -0.378728 -90.719240 0.526100 7.652971 -0.640327 0.627206 -2.481697 -0.896321 -3.314384 8.097867 0.464681 0.495143 2.735821 -0.716316 -7.624319 -4.919932 0.565034 0.049772 -0.029643 0.019057 2.974483 9.833894 -0.434123 -0.945998 1.331076 0.373968 5.032338 -5.046562 0.635716 -0.056580 0.029155 -0.033446
-11.103948 89.128670 -1.016504 -134.394054 -6.024636 -0.234521 0.527567 2.120939 0.146669 0.308374 1.211804 0.095088 0.385804 1.514673 0.119886 0.308375 1.211804 0.095088 3.197324 20.469513 -0.816782 6.054058 2.318199 -2.422746 0.341054 -0.529637 -0.779843 0.826339 -1.330742 90.949531 4.231392 8.493569 1.827413 -0.452885 -2.012901 -0.509016 0.435743 0.284286 1.684887 -2.551654 -0.367959 -90.717030 0.588353 7.681044 -0.624084 0.639434 -2.462648 -0.902694 -3.307289 8.080357 0.479198 0.483002 2.701267 -0.707342 -7.646592 -4.903165 0.549763 0.049365 -0.027205 0.017557 2.949903 9.800331 -0.441682 -0.936773 1.313427 0.387919 5.032348 -5.032952 0.630700 -0.054565 0.030684 -0.033362
-11.093577 89.127913 -1.021990 -134.362564 -5.991047 -0.235059 0.529147 2.110527 0.136178 0.309455 1.205326 0.088140 0.387130 1.506581 0.111199 0.309455 1.205326 0.088140 3.186346 20.470217 -0.805929 6.030899 2.318362 -2.399791 0.326136 -0.521616 -0.773820 0.821610 -1.311499 90.970551 4.259302 8.514348 1.847012 -0.453177 -2.013116 -0.506577 0.423727 0.292161 1.692274 -2.584378 -0.365831 -90.714151 0.650662 7.711343 -0.603068 0.652307 -2.451293 -0.907591 -3.306909 8.068795 0.490047 0.473893 2.661434 -0.698440 -7.665351 -4.886363 0.534098 0.049183 -0.023628 0.016723 2.920288 9.764450 -0.447976 -0.925663 1.305304 0.397714 5.022353 -5.024123 0.626530 -0.052529 0.032024 -0.033302
-11.083568 89.127097 -1.028277 -134.327550 -5.961763 -0.232973 0.530079 2.101476 0.125766 0.310296 1.199797 0.081159 0.388157 1.499676 0.102469 0.310296 1.199797 0.081159 3.176557 20.470428 -0.796363 6.010293 2.317747 -2.379546 0.317692 -0.510371 -0.769588 0.807443 -1.292581 90.993040 4.276636 8.528928 1.858161 -0.453573 -2.008360 -0.504864 0.417524 0.302079 1.700245 -2.612378 -0.368923 -90.714967 0.707949 7.742037 -0.577240 0.663589 -2.446313 -0.913681 -3.311951 8.063886 0.498141 0.469778 2.618921 -0.690963 -7.686093 -4.870409 0.518843 0.048937 -0.019312 0.016246 2.887315 9.729563 -0.451646 -0.914278 1.304792 0.402183 4.998386 -5.019547 0.624629 -0.051641 0.033021 -0.034370
-11.073740 89.126245 -1.035641 -134.290009 -5.937015 -0.229973 0.531523 2.095023 0.115484 0.311569 1.195920 0.074553 0.389725 1.494835 0.094213 0.311569 1.195920 0.074553 3.166265 20.469456 -0.787990 5.989165 2.314984 -2.361379 0.310177 -0.501651 -0.764693 0.791451 -1.271599 91.013988 4.284982 8.540665 1.864536 -0.454483 -2.007368 -0.504566 0.414495 0.310890 1.707537 -2.638856 -0.374971 -90.716464 0.755472 7.763335 -0.553262 0.674254 -2.441164 -0.918700 -3.320798 8.063472 0.506633 0.464427 2.578226 -0.685740 -7.706759 -4.856864 0.503772 0.048027 -0.014845 0.016089 2.854969 9.697829 -0.452973 -0.905372 1.307890 0.402309 4.971713 -5.017749 0.626249 -0.051576 0.033862 -0.036769
-11.064023 89.125397 -1.044512 -134.254128 -5.918373 -0.227965 0.535191 2.091729 0.105674 0.313990 1.193914 0.068508 0.392732 1.492332 0.086662 0.313990 1.193914 0.068508 3.155360 20.467348 -0.780345 5.967172 2.310129 -2.344410 0.302048 -0.497332 -0.758977 0.779406 -1.245441 91.032549 4.284905 8.551636 1.868254 -0.455758 -2.012919 -0.505653 0.414163 0.318837 1.714169 -2.664019 -0.383703 -90.716566 0.791332 7.771397 -0.534736 0.686269 -2.438872 -0.920975 -3.328544 8.068221 0.518625 0.456015 2.540727 -0.683992 -7.725822 -4.845542 0.489485 0.046505 -0.010854 0.015999 2.828615 9.671736 -0.452516 -0.897796 1.313522 0.401785 4.949487 -5.018384 0.629029 -0.050946 0.034410 -0.039324
-11.054482 89.124550 -1.054597 -134.219781 -5.905126 -0.226050 0.540813 2.089995 0.096676 0.317178 1.192883 0.062737 0.396698 1.491048 0.079458 0.317178 1.192883 0.062737 3.145473 20.465354 -0.773261 5.947192 2.305571 -2.328751 0.294583 -0.493178 -0.754930 0.772673 -1.214546 91.051308 4.274992 8.557128 1.865704 -0.455480 -2.016348 -0.507626 0.414628 0.328286 1.721178 -2.676407 -0.392496 -90.718090 0.816144 7.770894 -0.520545 0.695723 -2.441411 -0.919029 -3.334259 8.078433 0.533208 0.446682 2.504076 -0.686639 -7.743991 -4.834771 0.476724 0.045204 -0.007497 0.016069 2.807687 9.651138 -0.452960 -0.890447 1.320407 0.403872 4.931759 -5.019954 0.629986 -0.049464 0.034390 -0.040789
-11.045016 89.123668 -1.065328 -134.184874 -5.894737 -0.223358 0.547716 2.089055 0.088743 0.320733 1.192366 0.057198 0.401124 1.490406 0.072545 0.320733 1.192366 0.057198 3.136779 20.463757 -0.766730 5.929528 2.301838 -2.314425 0.288798 -0.487571 -0.752314 0.771060 -1.182538 91.068898 4.254927 8.554672 1.855897 -0.452838 -2.016066 -0.508870 0.415643 0.338944 1.727857 -2.675012 -0.401365 -90.721832 0.830140 7.760796 -0.511646 0.700106 -2.445602 -0.910112 -3.340061 8.090621 0.546071 0.438769 2.470125 -0.690010 -7.756411 -4.825404 0.463883 0.045519 -0.004730 0.017185 2.790651 9.635076 -0.453935 -0.883359 1.324675 0.408514 4.910120 -5.019999 0.628388 -0.048497 0.034066 -0.041241
-11.035451 89.122750 -1.076560 -134.151277 -5.886188 -0.220895 0.556680 2.089069 0.082165 0.325457 1.192321 0.052764 0.407015 1.490353 0.067017 0.325457 1.192321 0.052764 3.126903 20.463063 -0.761640 5.910104 2.299808 -2.302327 0.283855 -0.481216 -0.752727 0.775069 -1.150368 91.084170 4.225023 8.547831 1.841039 -0.448667 -2.016604 -0.511272 0.415647 0.351441 1.732357 -2.664040 -0.413679 -90.726742 0.831638 7.742485 -0.509048 0.702549 -2.451659 -0.897192 -3.343098 8.101211 0.558891 0.435213 2.443174 -0.691614 -7.774121 -4.819271 0.450128 0.046395 -0.002511 0.018449 2.778666 9.622779 -0.451763 -0.875117 1.325974 0.413122 4.877527 -5.019081 0.624694 -0.048836 0.034038 -0.040965
-11.025828 89.121812 -1.088122 -134.118002 -5.879189 -0.218959 0.566705 2.090139 0.076913 0.331047 1.192894 0.049730 0.413993 1.491071 0.063244 0.331047 1.192894 0.049730 3.115554 20.463704 -0.758553 5.888543 2.300303 -2.293376 0.279006 -0.476780 -0.757315 0.785834 -1.118162 91.097549 4.183127 8.537992 1.820638 -0.443644 -2.018045 -0.516030 0.414359 0.363251 1.733299 -2.644244 -0.429539 -90.730560 0.823085 7.723331 -0.513669 0.701825 -2.463139 -0.880596 -3.343012 8.110067 0.574684 0.433058 2.422463 -0.693475 -7.805110 -4.815656 0.436823 0.045664 -0.000866 0.018631 2.770170 9.613487 -0.447153 -0.865683 1.324664 0.416676 4.840257 -5.017498 0.619963 -0.049417 0.034372 -0.039950
